<mxfile host="app.diagrams.net" agent="Mozilla/5.0 (Windows NT 10.0; Win64; x64) AppleWebKit/537.36 (KHTML, like Gecko) Chrome/139.0.0.0 Safari/537.36 Edg/139.0.0.0" version="28.1.0">
  <diagram name="Page-1" id="p2fuIWCAqn4Gz_qrPr4O">
    <mxGraphModel dx="1900" dy="722" grid="1" gridSize="10" guides="1" tooltips="1" connect="1" arrows="1" fold="1" page="1" pageScale="1" pageWidth="1169" pageHeight="827" math="0" shadow="0">
      <root>
        <mxCell id="0" />
        <mxCell id="1" parent="0" />
        <mxCell id="Dy9m-1CG-kqUZyAml9VA-250" value="UserModel" style="swimlane;fontStyle=1;align=center;verticalAlign=top;childLayout=stackLayout;horizontal=1;startSize=27.993825912475586;horizontalStack=0;resizeParent=1;resizeParentMax=0;resizeLast=0;collapsible=0;marginBottom=0;" vertex="1" parent="1">
          <mxGeometry x="873" y="1110" width="393" height="455.9938259124756" as="geometry" />
        </mxCell>
        <mxCell id="Dy9m-1CG-kqUZyAml9VA-251" value="+String id" style="text;strokeColor=none;fillColor=none;align=left;verticalAlign=top;spacingLeft=4;spacingRight=4;overflow=hidden;rotatable=0;points=[[0,0.5],[1,0.5]];portConstraint=eastwest;" vertex="1" parent="Dy9m-1CG-kqUZyAml9VA-250">
          <mxGeometry y="27.993825912475586" width="393" height="28" as="geometry" />
        </mxCell>
        <mxCell id="Dy9m-1CG-kqUZyAml9VA-252" value="+String name" style="text;strokeColor=none;fillColor=none;align=left;verticalAlign=top;spacingLeft=4;spacingRight=4;overflow=hidden;rotatable=0;points=[[0,0.5],[1,0.5]];portConstraint=eastwest;" vertex="1" parent="Dy9m-1CG-kqUZyAml9VA-250">
          <mxGeometry y="55.993825912475586" width="393" height="28" as="geometry" />
        </mxCell>
        <mxCell id="Dy9m-1CG-kqUZyAml9VA-253" value="+String email" style="text;strokeColor=none;fillColor=none;align=left;verticalAlign=top;spacingLeft=4;spacingRight=4;overflow=hidden;rotatable=0;points=[[0,0.5],[1,0.5]];portConstraint=eastwest;" vertex="1" parent="Dy9m-1CG-kqUZyAml9VA-250">
          <mxGeometry y="83.99382591247559" width="393" height="28" as="geometry" />
        </mxCell>
        <mxCell id="Dy9m-1CG-kqUZyAml9VA-254" value="+String profileImageUrl" style="text;strokeColor=none;fillColor=none;align=left;verticalAlign=top;spacingLeft=4;spacingRight=4;overflow=hidden;rotatable=0;points=[[0,0.5],[1,0.5]];portConstraint=eastwest;" vertex="1" parent="Dy9m-1CG-kqUZyAml9VA-250">
          <mxGeometry y="111.99382591247559" width="393" height="28" as="geometry" />
        </mxCell>
        <mxCell id="Dy9m-1CG-kqUZyAml9VA-255" value="+String phoneNumber" style="text;strokeColor=none;fillColor=none;align=left;verticalAlign=top;spacingLeft=4;spacingRight=4;overflow=hidden;rotatable=0;points=[[0,0.5],[1,0.5]];portConstraint=eastwest;" vertex="1" parent="Dy9m-1CG-kqUZyAml9VA-250">
          <mxGeometry y="139.9938259124756" width="393" height="28" as="geometry" />
        </mxCell>
        <mxCell id="Dy9m-1CG-kqUZyAml9VA-256" value="+String address" style="text;strokeColor=none;fillColor=none;align=left;verticalAlign=top;spacingLeft=4;spacingRight=4;overflow=hidden;rotatable=0;points=[[0,0.5],[1,0.5]];portConstraint=eastwest;" vertex="1" parent="Dy9m-1CG-kqUZyAml9VA-250">
          <mxGeometry y="167.9938259124756" width="393" height="28" as="geometry" />
        </mxCell>
        <mxCell id="Dy9m-1CG-kqUZyAml9VA-257" value="+DateTime createdAt" style="text;strokeColor=none;fillColor=none;align=left;verticalAlign=top;spacingLeft=4;spacingRight=4;overflow=hidden;rotatable=0;points=[[0,0.5],[1,0.5]];portConstraint=eastwest;" vertex="1" parent="Dy9m-1CG-kqUZyAml9VA-250">
          <mxGeometry y="195.9938259124756" width="393" height="28" as="geometry" />
        </mxCell>
        <mxCell id="Dy9m-1CG-kqUZyAml9VA-258" value="+String token" style="text;strokeColor=none;fillColor=none;align=left;verticalAlign=top;spacingLeft=4;spacingRight=4;overflow=hidden;rotatable=0;points=[[0,0.5],[1,0.5]];portConstraint=eastwest;" vertex="1" parent="Dy9m-1CG-kqUZyAml9VA-250">
          <mxGeometry y="223.9938259124756" width="393" height="28" as="geometry" />
        </mxCell>
        <mxCell id="Dy9m-1CG-kqUZyAml9VA-259" value="+bool admin" style="text;strokeColor=none;fillColor=none;align=left;verticalAlign=top;spacingLeft=4;spacingRight=4;overflow=hidden;rotatable=0;points=[[0,0.5],[1,0.5]];portConstraint=eastwest;" vertex="1" parent="Dy9m-1CG-kqUZyAml9VA-250">
          <mxGeometry y="251.9938259124756" width="393" height="28" as="geometry" />
        </mxCell>
        <mxCell id="Dy9m-1CG-kqUZyAml9VA-260" value="+bool isInDanger" style="text;strokeColor=none;fillColor=none;align=left;verticalAlign=top;spacingLeft=4;spacingRight=4;overflow=hidden;rotatable=0;points=[[0,0.5],[1,0.5]];portConstraint=eastwest;" vertex="1" parent="Dy9m-1CG-kqUZyAml9VA-250">
          <mxGeometry y="279.9938259124756" width="393" height="28" as="geometry" />
        </mxCell>
        <mxCell id="Dy9m-1CG-kqUZyAml9VA-261" value="+Map&lt;String, dynamic&gt;? location" style="text;strokeColor=none;fillColor=none;align=left;verticalAlign=top;spacingLeft=4;spacingRight=4;overflow=hidden;rotatable=0;points=[[0,0.5],[1,0.5]];portConstraint=eastwest;" vertex="1" parent="Dy9m-1CG-kqUZyAml9VA-250">
          <mxGeometry y="307.9938259124756" width="393" height="28" as="geometry" />
        </mxCell>
        <mxCell id="Dy9m-1CG-kqUZyAml9VA-262" value="+List&lt;EmergencyContact&gt; emergencyContacts" style="text;strokeColor=none;fillColor=none;align=left;verticalAlign=top;spacingLeft=4;spacingRight=4;overflow=hidden;rotatable=0;points=[[0,0.5],[1,0.5]];portConstraint=eastwest;" vertex="1" parent="Dy9m-1CG-kqUZyAml9VA-250">
          <mxGeometry y="335.9938259124756" width="393" height="28" as="geometry" />
        </mxCell>
        <mxCell id="Dy9m-1CG-kqUZyAml9VA-263" style="line;strokeWidth=1;fillColor=none;align=left;verticalAlign=middle;spacingTop=-1;spacingLeft=3;spacingRight=3;rotatable=0;labelPosition=right;points=[];portConstraint=eastwest;strokeColor=inherit;" vertex="1" parent="Dy9m-1CG-kqUZyAml9VA-250">
          <mxGeometry y="363.9938259124756" width="393" height="8" as="geometry" />
        </mxCell>
        <mxCell id="Dy9m-1CG-kqUZyAml9VA-264" value="+UserModel()" style="text;strokeColor=none;fillColor=none;align=left;verticalAlign=top;spacingLeft=4;spacingRight=4;overflow=hidden;rotatable=0;points=[[0,0.5],[1,0.5]];portConstraint=eastwest;" vertex="1" parent="Dy9m-1CG-kqUZyAml9VA-250">
          <mxGeometry y="371.9938259124756" width="393" height="28" as="geometry" />
        </mxCell>
        <mxCell id="Dy9m-1CG-kqUZyAml9VA-265" value="+Map&lt;String, dynamic&gt; toJson()" style="text;strokeColor=none;fillColor=none;align=left;verticalAlign=top;spacingLeft=4;spacingRight=4;overflow=hidden;rotatable=0;points=[[0,0.5],[1,0.5]];portConstraint=eastwest;" vertex="1" parent="Dy9m-1CG-kqUZyAml9VA-250">
          <mxGeometry y="399.9938259124756" width="393" height="28" as="geometry" />
        </mxCell>
        <mxCell id="Dy9m-1CG-kqUZyAml9VA-266" value="+UserModel.fromJson(Map)" style="text;strokeColor=none;fillColor=none;align=left;verticalAlign=top;spacingLeft=4;spacingRight=4;overflow=hidden;rotatable=0;points=[[0,0.5],[1,0.5]];portConstraint=eastwest;" vertex="1" parent="Dy9m-1CG-kqUZyAml9VA-250">
          <mxGeometry y="427.9938259124756" width="393" height="28" as="geometry" />
        </mxCell>
        <mxCell id="Dy9m-1CG-kqUZyAml9VA-267" value="AlertModel" style="swimlane;fontStyle=1;align=center;verticalAlign=top;childLayout=stackLayout;horizontal=1;startSize=27.193820190429687;horizontalStack=0;resizeParent=1;resizeParentMax=0;resizeLast=0;collapsible=0;marginBottom=0;" vertex="1" parent="1">
          <mxGeometry x="180" y="1655" width="315" height="548.1938201904297" as="geometry" />
        </mxCell>
        <mxCell id="Dy9m-1CG-kqUZyAml9VA-268" value="+String alertId" style="text;strokeColor=none;fillColor=none;align=left;verticalAlign=top;spacingLeft=4;spacingRight=4;overflow=hidden;rotatable=0;points=[[0,0.5],[1,0.5]];portConstraint=eastwest;" vertex="1" parent="Dy9m-1CG-kqUZyAml9VA-267">
          <mxGeometry y="27.193820190429687" width="315" height="27" as="geometry" />
        </mxCell>
        <mxCell id="Dy9m-1CG-kqUZyAml9VA-269" value="+String userId" style="text;strokeColor=none;fillColor=none;align=left;verticalAlign=top;spacingLeft=4;spacingRight=4;overflow=hidden;rotatable=0;points=[[0,0.5],[1,0.5]];portConstraint=eastwest;" vertex="1" parent="Dy9m-1CG-kqUZyAml9VA-267">
          <mxGeometry y="54.19382019042969" width="315" height="27" as="geometry" />
        </mxCell>
        <mxCell id="Dy9m-1CG-kqUZyAml9VA-270" value="+String userName" style="text;strokeColor=none;fillColor=none;align=left;verticalAlign=top;spacingLeft=4;spacingRight=4;overflow=hidden;rotatable=0;points=[[0,0.5],[1,0.5]];portConstraint=eastwest;" vertex="1" parent="Dy9m-1CG-kqUZyAml9VA-267">
          <mxGeometry y="81.19382019042969" width="315" height="27" as="geometry" />
        </mxCell>
        <mxCell id="Dy9m-1CG-kqUZyAml9VA-271" value="+String userPhone" style="text;strokeColor=none;fillColor=none;align=left;verticalAlign=top;spacingLeft=4;spacingRight=4;overflow=hidden;rotatable=0;points=[[0,0.5],[1,0.5]];portConstraint=eastwest;" vertex="1" parent="Dy9m-1CG-kqUZyAml9VA-267">
          <mxGeometry y="108.19382019042969" width="315" height="27" as="geometry" />
        </mxCell>
        <mxCell id="Dy9m-1CG-kqUZyAml9VA-272" value="+String? address" style="text;strokeColor=none;fillColor=none;align=left;verticalAlign=top;spacingLeft=4;spacingRight=4;overflow=hidden;rotatable=0;points=[[0,0.5],[1,0.5]];portConstraint=eastwest;" vertex="1" parent="Dy9m-1CG-kqUZyAml9VA-267">
          <mxGeometry y="135.19382019042968" width="315" height="27" as="geometry" />
        </mxCell>
        <mxCell id="Dy9m-1CG-kqUZyAml9VA-273" value="+String? pstation" style="text;strokeColor=none;fillColor=none;align=left;verticalAlign=top;spacingLeft=4;spacingRight=4;overflow=hidden;rotatable=0;points=[[0,0.5],[1,0.5]];portConstraint=eastwest;" vertex="1" parent="Dy9m-1CG-kqUZyAml9VA-267">
          <mxGeometry y="162.19382019042968" width="315" height="27" as="geometry" />
        </mxCell>
        <mxCell id="Dy9m-1CG-kqUZyAml9VA-274" value="+String? hpital" style="text;strokeColor=none;fillColor=none;align=left;verticalAlign=top;spacingLeft=4;spacingRight=4;overflow=hidden;rotatable=0;points=[[0,0.5],[1,0.5]];portConstraint=eastwest;" vertex="1" parent="Dy9m-1CG-kqUZyAml9VA-267">
          <mxGeometry y="189.19382019042968" width="315" height="27" as="geometry" />
        </mxCell>
        <mxCell id="Dy9m-1CG-kqUZyAml9VA-275" value="+String? message" style="text;strokeColor=none;fillColor=none;align=left;verticalAlign=top;spacingLeft=4;spacingRight=4;overflow=hidden;rotatable=0;points=[[0,0.5],[1,0.5]];portConstraint=eastwest;" vertex="1" parent="Dy9m-1CG-kqUZyAml9VA-267">
          <mxGeometry y="216.19382019042968" width="315" height="27" as="geometry" />
        </mxCell>
        <mxCell id="Dy9m-1CG-kqUZyAml9VA-276" value="+String? etype" style="text;strokeColor=none;fillColor=none;align=left;verticalAlign=top;spacingLeft=4;spacingRight=4;overflow=hidden;rotatable=0;points=[[0,0.5],[1,0.5]];portConstraint=eastwest;" vertex="1" parent="Dy9m-1CG-kqUZyAml9VA-267">
          <mxGeometry y="243.19382019042968" width="315" height="27" as="geometry" />
        </mxCell>
        <mxCell id="Dy9m-1CG-kqUZyAml9VA-277" value="+String status" style="text;strokeColor=none;fillColor=none;align=left;verticalAlign=top;spacingLeft=4;spacingRight=4;overflow=hidden;rotatable=0;points=[[0,0.5],[1,0.5]];portConstraint=eastwest;" vertex="1" parent="Dy9m-1CG-kqUZyAml9VA-267">
          <mxGeometry y="270.1938201904297" width="315" height="27" as="geometry" />
        </mxCell>
        <mxCell id="Dy9m-1CG-kqUZyAml9VA-278" value="+Timestamp timestamp" style="text;strokeColor=none;fillColor=none;align=left;verticalAlign=top;spacingLeft=4;spacingRight=4;overflow=hidden;rotatable=0;points=[[0,0.5],[1,0.5]];portConstraint=eastwest;" vertex="1" parent="Dy9m-1CG-kqUZyAml9VA-267">
          <mxGeometry y="297.1938201904297" width="315" height="27" as="geometry" />
        </mxCell>
        <mxCell id="Dy9m-1CG-kqUZyAml9VA-279" value="+Timestamp? safeTime" style="text;strokeColor=none;fillColor=none;align=left;verticalAlign=top;spacingLeft=4;spacingRight=4;overflow=hidden;rotatable=0;points=[[0,0.5],[1,0.5]];portConstraint=eastwest;" vertex="1" parent="Dy9m-1CG-kqUZyAml9VA-267">
          <mxGeometry y="324.1938201904297" width="315" height="27" as="geometry" />
        </mxCell>
        <mxCell id="Dy9m-1CG-kqUZyAml9VA-280" value="+int severity" style="text;strokeColor=none;fillColor=none;align=left;verticalAlign=top;spacingLeft=4;spacingRight=4;overflow=hidden;rotatable=0;points=[[0,0.5],[1,0.5]];portConstraint=eastwest;" vertex="1" parent="Dy9m-1CG-kqUZyAml9VA-267">
          <mxGeometry y="351.1938201904297" width="315" height="27" as="geometry" />
        </mxCell>
        <mxCell id="Dy9m-1CG-kqUZyAml9VA-281" value="+int notified" style="text;strokeColor=none;fillColor=none;align=left;verticalAlign=top;spacingLeft=4;spacingRight=4;overflow=hidden;rotatable=0;points=[[0,0.5],[1,0.5]];portConstraint=eastwest;" vertex="1" parent="Dy9m-1CG-kqUZyAml9VA-267">
          <mxGeometry y="378.1938201904297" width="315" height="27" as="geometry" />
        </mxCell>
        <mxCell id="Dy9m-1CG-kqUZyAml9VA-282" value="+List&lt;String&gt;? responders" style="text;strokeColor=none;fillColor=none;align=left;verticalAlign=top;spacingLeft=4;spacingRight=4;overflow=hidden;rotatable=0;points=[[0,0.5],[1,0.5]];portConstraint=eastwest;" vertex="1" parent="Dy9m-1CG-kqUZyAml9VA-267">
          <mxGeometry y="405.1938201904297" width="315" height="27" as="geometry" />
        </mxCell>
        <mxCell id="Dy9m-1CG-kqUZyAml9VA-283" value="+Map&lt;String, dynamic&gt;? location" style="text;strokeColor=none;fillColor=none;align=left;verticalAlign=top;spacingLeft=4;spacingRight=4;overflow=hidden;rotatable=0;points=[[0,0.5],[1,0.5]];portConstraint=eastwest;" vertex="1" parent="Dy9m-1CG-kqUZyAml9VA-267">
          <mxGeometry y="432.1938201904297" width="315" height="27" as="geometry" />
        </mxCell>
        <mxCell id="Dy9m-1CG-kqUZyAml9VA-284" style="line;strokeWidth=1;fillColor=none;align=left;verticalAlign=middle;spacingTop=-1;spacingLeft=3;spacingRight=3;rotatable=0;labelPosition=right;points=[];portConstraint=eastwest;strokeColor=inherit;" vertex="1" parent="Dy9m-1CG-kqUZyAml9VA-267">
          <mxGeometry y="459.1938201904297" width="315" height="8" as="geometry" />
        </mxCell>
        <mxCell id="Dy9m-1CG-kqUZyAml9VA-285" value="+AlertModel()" style="text;strokeColor=none;fillColor=none;align=left;verticalAlign=top;spacingLeft=4;spacingRight=4;overflow=hidden;rotatable=0;points=[[0,0.5],[1,0.5]];portConstraint=eastwest;" vertex="1" parent="Dy9m-1CG-kqUZyAml9VA-267">
          <mxGeometry y="467.1938201904297" width="315" height="27" as="geometry" />
        </mxCell>
        <mxCell id="Dy9m-1CG-kqUZyAml9VA-286" value="+AlertModel.fromJson(Map, String)" style="text;strokeColor=none;fillColor=none;align=left;verticalAlign=top;spacingLeft=4;spacingRight=4;overflow=hidden;rotatable=0;points=[[0,0.5],[1,0.5]];portConstraint=eastwest;" vertex="1" parent="Dy9m-1CG-kqUZyAml9VA-267">
          <mxGeometry y="494.1938201904297" width="315" height="27" as="geometry" />
        </mxCell>
        <mxCell id="Dy9m-1CG-kqUZyAml9VA-287" value="+Map&lt;String, dynamic&gt; toJson()" style="text;strokeColor=none;fillColor=none;align=left;verticalAlign=top;spacingLeft=4;spacingRight=4;overflow=hidden;rotatable=0;points=[[0,0.5],[1,0.5]];portConstraint=eastwest;" vertex="1" parent="Dy9m-1CG-kqUZyAml9VA-267">
          <mxGeometry y="521.1938201904297" width="315" height="27" as="geometry" />
        </mxCell>
        <mxCell id="Dy9m-1CG-kqUZyAml9VA-288" value="PostModel" style="swimlane;fontStyle=1;align=center;verticalAlign=top;childLayout=stackLayout;horizontal=1;startSize=28.916900634765625;horizontalStack=0;resizeParent=1;resizeParentMax=0;resizeLast=0;collapsible=0;marginBottom=0;" vertex="1" parent="1">
          <mxGeometry x="1321" y="1739" width="306" height="384.9169006347656" as="geometry" />
        </mxCell>
        <mxCell id="Dy9m-1CG-kqUZyAml9VA-289" value="+String id" style="text;strokeColor=none;fillColor=none;align=left;verticalAlign=top;spacingLeft=4;spacingRight=4;overflow=hidden;rotatable=0;points=[[0,0.5],[1,0.5]];portConstraint=eastwest;" vertex="1" parent="Dy9m-1CG-kqUZyAml9VA-288">
          <mxGeometry y="28.916900634765625" width="306" height="29" as="geometry" />
        </mxCell>
        <mxCell id="Dy9m-1CG-kqUZyAml9VA-290" value="+String userId" style="text;strokeColor=none;fillColor=none;align=left;verticalAlign=top;spacingLeft=4;spacingRight=4;overflow=hidden;rotatable=0;points=[[0,0.5],[1,0.5]];portConstraint=eastwest;" vertex="1" parent="Dy9m-1CG-kqUZyAml9VA-288">
          <mxGeometry y="57.916900634765625" width="306" height="29" as="geometry" />
        </mxCell>
        <mxCell id="Dy9m-1CG-kqUZyAml9VA-291" value="+String userName" style="text;strokeColor=none;fillColor=none;align=left;verticalAlign=top;spacingLeft=4;spacingRight=4;overflow=hidden;rotatable=0;points=[[0,0.5],[1,0.5]];portConstraint=eastwest;" vertex="1" parent="Dy9m-1CG-kqUZyAml9VA-288">
          <mxGeometry y="86.91690063476562" width="306" height="29" as="geometry" />
        </mxCell>
        <mxCell id="Dy9m-1CG-kqUZyAml9VA-292" value="+String userProfileImage" style="text;strokeColor=none;fillColor=none;align=left;verticalAlign=top;spacingLeft=4;spacingRight=4;overflow=hidden;rotatable=0;points=[[0,0.5],[1,0.5]];portConstraint=eastwest;" vertex="1" parent="Dy9m-1CG-kqUZyAml9VA-288">
          <mxGeometry y="115.91690063476562" width="306" height="29" as="geometry" />
        </mxCell>
        <mxCell id="Dy9m-1CG-kqUZyAml9VA-293" value="+String content" style="text;strokeColor=none;fillColor=none;align=left;verticalAlign=top;spacingLeft=4;spacingRight=4;overflow=hidden;rotatable=0;points=[[0,0.5],[1,0.5]];portConstraint=eastwest;" vertex="1" parent="Dy9m-1CG-kqUZyAml9VA-288">
          <mxGeometry y="144.91690063476562" width="306" height="29" as="geometry" />
        </mxCell>
        <mxCell id="Dy9m-1CG-kqUZyAml9VA-294" value="+bool temp" style="text;strokeColor=none;fillColor=none;align=left;verticalAlign=top;spacingLeft=4;spacingRight=4;overflow=hidden;rotatable=0;points=[[0,0.5],[1,0.5]];portConstraint=eastwest;" vertex="1" parent="Dy9m-1CG-kqUZyAml9VA-288">
          <mxGeometry y="173.91690063476562" width="306" height="29" as="geometry" />
        </mxCell>
        <mxCell id="Dy9m-1CG-kqUZyAml9VA-295" value="+DateTime createdAt" style="text;strokeColor=none;fillColor=none;align=left;verticalAlign=top;spacingLeft=4;spacingRight=4;overflow=hidden;rotatable=0;points=[[0,0.5],[1,0.5]];portConstraint=eastwest;" vertex="1" parent="Dy9m-1CG-kqUZyAml9VA-288">
          <mxGeometry y="202.91690063476562" width="306" height="29" as="geometry" />
        </mxCell>
        <mxCell id="Dy9m-1CG-kqUZyAml9VA-296" value="+List&lt;String&gt; upvotes" style="text;strokeColor=none;fillColor=none;align=left;verticalAlign=top;spacingLeft=4;spacingRight=4;overflow=hidden;rotatable=0;points=[[0,0.5],[1,0.5]];portConstraint=eastwest;" vertex="1" parent="Dy9m-1CG-kqUZyAml9VA-288">
          <mxGeometry y="231.91690063476562" width="306" height="29" as="geometry" />
        </mxCell>
        <mxCell id="Dy9m-1CG-kqUZyAml9VA-297" value="+int commentCount" style="text;strokeColor=none;fillColor=none;align=left;verticalAlign=top;spacingLeft=4;spacingRight=4;overflow=hidden;rotatable=0;points=[[0,0.5],[1,0.5]];portConstraint=eastwest;" vertex="1" parent="Dy9m-1CG-kqUZyAml9VA-288">
          <mxGeometry y="260.9169006347656" width="306" height="29" as="geometry" />
        </mxCell>
        <mxCell id="Dy9m-1CG-kqUZyAml9VA-298" style="line;strokeWidth=1;fillColor=none;align=left;verticalAlign=middle;spacingTop=-1;spacingLeft=3;spacingRight=3;rotatable=0;labelPosition=right;points=[];portConstraint=eastwest;strokeColor=inherit;" vertex="1" parent="Dy9m-1CG-kqUZyAml9VA-288">
          <mxGeometry y="289.9169006347656" width="306" height="8" as="geometry" />
        </mxCell>
        <mxCell id="Dy9m-1CG-kqUZyAml9VA-299" value="+PostModel()" style="text;strokeColor=none;fillColor=none;align=left;verticalAlign=top;spacingLeft=4;spacingRight=4;overflow=hidden;rotatable=0;points=[[0,0.5],[1,0.5]];portConstraint=eastwest;" vertex="1" parent="Dy9m-1CG-kqUZyAml9VA-288">
          <mxGeometry y="297.9169006347656" width="306" height="29" as="geometry" />
        </mxCell>
        <mxCell id="Dy9m-1CG-kqUZyAml9VA-300" value="+PostModel.fromJson(Map, String)" style="text;strokeColor=none;fillColor=none;align=left;verticalAlign=top;spacingLeft=4;spacingRight=4;overflow=hidden;rotatable=0;points=[[0,0.5],[1,0.5]];portConstraint=eastwest;" vertex="1" parent="Dy9m-1CG-kqUZyAml9VA-288">
          <mxGeometry y="326.9169006347656" width="306" height="29" as="geometry" />
        </mxCell>
        <mxCell id="Dy9m-1CG-kqUZyAml9VA-301" value="+Map&lt;String, dynamic&gt; toJson()" style="text;strokeColor=none;fillColor=none;align=left;verticalAlign=top;spacingLeft=4;spacingRight=4;overflow=hidden;rotatable=0;points=[[0,0.5],[1,0.5]];portConstraint=eastwest;" vertex="1" parent="Dy9m-1CG-kqUZyAml9VA-288">
          <mxGeometry y="355.9169006347656" width="306" height="29" as="geometry" />
        </mxCell>
        <mxCell id="Dy9m-1CG-kqUZyAml9VA-302" value="CommentModel" style="swimlane;fontStyle=1;align=center;verticalAlign=top;childLayout=stackLayout;horizontal=1;startSize=28.56524876185826;horizontalStack=0;resizeParent=1;resizeParentMax=0;resizeLast=0;collapsible=0;marginBottom=0;" vertex="1" parent="1">
          <mxGeometry x="1082" y="2279" width="365" height="413.56524876185824" as="geometry" />
        </mxCell>
        <mxCell id="Dy9m-1CG-kqUZyAml9VA-303" value="+String id" style="text;strokeColor=none;fillColor=none;align=left;verticalAlign=top;spacingLeft=4;spacingRight=4;overflow=hidden;rotatable=0;points=[[0,0.5],[1,0.5]];portConstraint=eastwest;" vertex="1" parent="Dy9m-1CG-kqUZyAml9VA-302">
          <mxGeometry y="28.56524876185826" width="365" height="29" as="geometry" />
        </mxCell>
        <mxCell id="Dy9m-1CG-kqUZyAml9VA-304" value="+String postId" style="text;strokeColor=none;fillColor=none;align=left;verticalAlign=top;spacingLeft=4;spacingRight=4;overflow=hidden;rotatable=0;points=[[0,0.5],[1,0.5]];portConstraint=eastwest;" vertex="1" parent="Dy9m-1CG-kqUZyAml9VA-302">
          <mxGeometry y="57.56524876185826" width="365" height="29" as="geometry" />
        </mxCell>
        <mxCell id="Dy9m-1CG-kqUZyAml9VA-305" value="+String userId" style="text;strokeColor=none;fillColor=none;align=left;verticalAlign=top;spacingLeft=4;spacingRight=4;overflow=hidden;rotatable=0;points=[[0,0.5],[1,0.5]];portConstraint=eastwest;" vertex="1" parent="Dy9m-1CG-kqUZyAml9VA-302">
          <mxGeometry y="86.56524876185826" width="365" height="29" as="geometry" />
        </mxCell>
        <mxCell id="Dy9m-1CG-kqUZyAml9VA-306" value="+String userName" style="text;strokeColor=none;fillColor=none;align=left;verticalAlign=top;spacingLeft=4;spacingRight=4;overflow=hidden;rotatable=0;points=[[0,0.5],[1,0.5]];portConstraint=eastwest;" vertex="1" parent="Dy9m-1CG-kqUZyAml9VA-302">
          <mxGeometry y="115.56524876185826" width="365" height="29" as="geometry" />
        </mxCell>
        <mxCell id="Dy9m-1CG-kqUZyAml9VA-307" value="+String userProfileImage" style="text;strokeColor=none;fillColor=none;align=left;verticalAlign=top;spacingLeft=4;spacingRight=4;overflow=hidden;rotatable=0;points=[[0,0.5],[1,0.5]];portConstraint=eastwest;" vertex="1" parent="Dy9m-1CG-kqUZyAml9VA-302">
          <mxGeometry y="144.56524876185824" width="365" height="29" as="geometry" />
        </mxCell>
        <mxCell id="Dy9m-1CG-kqUZyAml9VA-308" value="+String content" style="text;strokeColor=none;fillColor=none;align=left;verticalAlign=top;spacingLeft=4;spacingRight=4;overflow=hidden;rotatable=0;points=[[0,0.5],[1,0.5]];portConstraint=eastwest;" vertex="1" parent="Dy9m-1CG-kqUZyAml9VA-302">
          <mxGeometry y="173.56524876185824" width="365" height="29" as="geometry" />
        </mxCell>
        <mxCell id="Dy9m-1CG-kqUZyAml9VA-309" value="+DateTime createdAt" style="text;strokeColor=none;fillColor=none;align=left;verticalAlign=top;spacingLeft=4;spacingRight=4;overflow=hidden;rotatable=0;points=[[0,0.5],[1,0.5]];portConstraint=eastwest;" vertex="1" parent="Dy9m-1CG-kqUZyAml9VA-302">
          <mxGeometry y="202.56524876185824" width="365" height="29" as="geometry" />
        </mxCell>
        <mxCell id="Dy9m-1CG-kqUZyAml9VA-310" value="+List&lt;String&gt; upvotes" style="text;strokeColor=none;fillColor=none;align=left;verticalAlign=top;spacingLeft=4;spacingRight=4;overflow=hidden;rotatable=0;points=[[0,0.5],[1,0.5]];portConstraint=eastwest;" vertex="1" parent="Dy9m-1CG-kqUZyAml9VA-302">
          <mxGeometry y="231.56524876185824" width="365" height="29" as="geometry" />
        </mxCell>
        <mxCell id="Dy9m-1CG-kqUZyAml9VA-311" value="+String? parentCommentId" style="text;strokeColor=none;fillColor=none;align=left;verticalAlign=top;spacingLeft=4;spacingRight=4;overflow=hidden;rotatable=0;points=[[0,0.5],[1,0.5]];portConstraint=eastwest;" vertex="1" parent="Dy9m-1CG-kqUZyAml9VA-302">
          <mxGeometry y="260.56524876185824" width="365" height="29" as="geometry" />
        </mxCell>
        <mxCell id="Dy9m-1CG-kqUZyAml9VA-312" value="+int replyCount" style="text;strokeColor=none;fillColor=none;align=left;verticalAlign=top;spacingLeft=4;spacingRight=4;overflow=hidden;rotatable=0;points=[[0,0.5],[1,0.5]];portConstraint=eastwest;" vertex="1" parent="Dy9m-1CG-kqUZyAml9VA-302">
          <mxGeometry y="289.56524876185824" width="365" height="29" as="geometry" />
        </mxCell>
        <mxCell id="Dy9m-1CG-kqUZyAml9VA-313" style="line;strokeWidth=1;fillColor=none;align=left;verticalAlign=middle;spacingTop=-1;spacingLeft=3;spacingRight=3;rotatable=0;labelPosition=right;points=[];portConstraint=eastwest;strokeColor=inherit;" vertex="1" parent="Dy9m-1CG-kqUZyAml9VA-302">
          <mxGeometry y="318.56524876185824" width="365" height="8" as="geometry" />
        </mxCell>
        <mxCell id="Dy9m-1CG-kqUZyAml9VA-314" value="+CommentModel()" style="text;strokeColor=none;fillColor=none;align=left;verticalAlign=top;spacingLeft=4;spacingRight=4;overflow=hidden;rotatable=0;points=[[0,0.5],[1,0.5]];portConstraint=eastwest;" vertex="1" parent="Dy9m-1CG-kqUZyAml9VA-302">
          <mxGeometry y="326.56524876185824" width="365" height="29" as="geometry" />
        </mxCell>
        <mxCell id="Dy9m-1CG-kqUZyAml9VA-315" value="+CommentModel.fromJson(Map, String)" style="text;strokeColor=none;fillColor=none;align=left;verticalAlign=top;spacingLeft=4;spacingRight=4;overflow=hidden;rotatable=0;points=[[0,0.5],[1,0.5]];portConstraint=eastwest;" vertex="1" parent="Dy9m-1CG-kqUZyAml9VA-302">
          <mxGeometry y="355.56524876185824" width="365" height="29" as="geometry" />
        </mxCell>
        <mxCell id="Dy9m-1CG-kqUZyAml9VA-316" value="+Map&lt;String, dynamic&gt; toJson()" style="text;strokeColor=none;fillColor=none;align=left;verticalAlign=top;spacingLeft=4;spacingRight=4;overflow=hidden;rotatable=0;points=[[0,0.5],[1,0.5]];portConstraint=eastwest;" vertex="1" parent="Dy9m-1CG-kqUZyAml9VA-302">
          <mxGeometry y="384.56524876185824" width="365" height="29" as="geometry" />
        </mxCell>
        <mxCell id="Dy9m-1CG-kqUZyAml9VA-317" value="EmergencyContact" style="swimlane;fontStyle=1;align=center;verticalAlign=top;childLayout=stackLayout;horizontal=1;startSize=33.13667733328683;horizontalStack=0;resizeParent=1;resizeParentMax=0;resizeLast=0;collapsible=0;marginBottom=0;" vertex="1" parent="1">
          <mxGeometry x="594" y="1811" width="348" height="239.13667733328683" as="geometry" />
        </mxCell>
        <mxCell id="Dy9m-1CG-kqUZyAml9VA-318" value="+String name" style="text;strokeColor=none;fillColor=none;align=left;verticalAlign=top;spacingLeft=4;spacingRight=4;overflow=hidden;rotatable=0;points=[[0,0.5],[1,0.5]];portConstraint=eastwest;" vertex="1" parent="Dy9m-1CG-kqUZyAml9VA-317">
          <mxGeometry y="33.13667733328683" width="348" height="33" as="geometry" />
        </mxCell>
        <mxCell id="Dy9m-1CG-kqUZyAml9VA-319" value="+String phoneNumber" style="text;strokeColor=none;fillColor=none;align=left;verticalAlign=top;spacingLeft=4;spacingRight=4;overflow=hidden;rotatable=0;points=[[0,0.5],[1,0.5]];portConstraint=eastwest;" vertex="1" parent="Dy9m-1CG-kqUZyAml9VA-317">
          <mxGeometry y="66.13667733328683" width="348" height="33" as="geometry" />
        </mxCell>
        <mxCell id="Dy9m-1CG-kqUZyAml9VA-320" value="+String relationship" style="text;strokeColor=none;fillColor=none;align=left;verticalAlign=top;spacingLeft=4;spacingRight=4;overflow=hidden;rotatable=0;points=[[0,0.5],[1,0.5]];portConstraint=eastwest;" vertex="1" parent="Dy9m-1CG-kqUZyAml9VA-317">
          <mxGeometry y="99.13667733328683" width="348" height="33" as="geometry" />
        </mxCell>
        <mxCell id="Dy9m-1CG-kqUZyAml9VA-321" style="line;strokeWidth=1;fillColor=none;align=left;verticalAlign=middle;spacingTop=-1;spacingLeft=3;spacingRight=3;rotatable=0;labelPosition=right;points=[];portConstraint=eastwest;strokeColor=inherit;" vertex="1" parent="Dy9m-1CG-kqUZyAml9VA-317">
          <mxGeometry y="132.13667733328683" width="348" height="8" as="geometry" />
        </mxCell>
        <mxCell id="Dy9m-1CG-kqUZyAml9VA-322" value="+EmergencyContact()" style="text;strokeColor=none;fillColor=none;align=left;verticalAlign=top;spacingLeft=4;spacingRight=4;overflow=hidden;rotatable=0;points=[[0,0.5],[1,0.5]];portConstraint=eastwest;" vertex="1" parent="Dy9m-1CG-kqUZyAml9VA-317">
          <mxGeometry y="140.13667733328683" width="348" height="33" as="geometry" />
        </mxCell>
        <mxCell id="Dy9m-1CG-kqUZyAml9VA-323" value="+Map&lt;String, dynamic&gt; toJson()" style="text;strokeColor=none;fillColor=none;align=left;verticalAlign=top;spacingLeft=4;spacingRight=4;overflow=hidden;rotatable=0;points=[[0,0.5],[1,0.5]];portConstraint=eastwest;" vertex="1" parent="Dy9m-1CG-kqUZyAml9VA-317">
          <mxGeometry y="173.13667733328683" width="348" height="33" as="geometry" />
        </mxCell>
        <mxCell id="Dy9m-1CG-kqUZyAml9VA-324" value="+EmergencyContact.fromJson(Map)" style="text;strokeColor=none;fillColor=none;align=left;verticalAlign=top;spacingLeft=4;spacingRight=4;overflow=hidden;rotatable=0;points=[[0,0.5],[1,0.5]];portConstraint=eastwest;" vertex="1" parent="Dy9m-1CG-kqUZyAml9VA-317">
          <mxGeometry y="206.13667733328683" width="348" height="33" as="geometry" />
        </mxCell>
        <mxCell id="Dy9m-1CG-kqUZyAml9VA-325" value="PStationModel" style="swimlane;fontStyle=1;align=center;verticalAlign=top;childLayout=stackLayout;horizontal=1;startSize=31.993820190429688;horizontalStack=0;resizeParent=1;resizeParentMax=0;resizeLast=0;collapsible=0;marginBottom=0;" vertex="1" parent="1">
          <mxGeometry x="398" y="790" width="306" height="263.9938201904297" as="geometry" />
        </mxCell>
        <mxCell id="Dy9m-1CG-kqUZyAml9VA-326" value="+String stationName" style="text;strokeColor=none;fillColor=none;align=left;verticalAlign=top;spacingLeft=4;spacingRight=4;overflow=hidden;rotatable=0;points=[[0,0.5],[1,0.5]];portConstraint=eastwest;" vertex="1" parent="Dy9m-1CG-kqUZyAml9VA-325">
          <mxGeometry y="31.993820190429688" width="306" height="32" as="geometry" />
        </mxCell>
        <mxCell id="Dy9m-1CG-kqUZyAml9VA-327" value="+String phone" style="text;strokeColor=none;fillColor=none;align=left;verticalAlign=top;spacingLeft=4;spacingRight=4;overflow=hidden;rotatable=0;points=[[0,0.5],[1,0.5]];portConstraint=eastwest;" vertex="1" parent="Dy9m-1CG-kqUZyAml9VA-325">
          <mxGeometry y="63.99382019042969" width="306" height="32" as="geometry" />
        </mxCell>
        <mxCell id="Dy9m-1CG-kqUZyAml9VA-328" value="+String address" style="text;strokeColor=none;fillColor=none;align=left;verticalAlign=top;spacingLeft=4;spacingRight=4;overflow=hidden;rotatable=0;points=[[0,0.5],[1,0.5]];portConstraint=eastwest;" vertex="1" parent="Dy9m-1CG-kqUZyAml9VA-325">
          <mxGeometry y="95.99382019042969" width="306" height="32" as="geometry" />
        </mxCell>
        <mxCell id="Dy9m-1CG-kqUZyAml9VA-329" value="+Map&lt;String, dynamic&gt; location" style="text;strokeColor=none;fillColor=none;align=left;verticalAlign=top;spacingLeft=4;spacingRight=4;overflow=hidden;rotatable=0;points=[[0,0.5],[1,0.5]];portConstraint=eastwest;" vertex="1" parent="Dy9m-1CG-kqUZyAml9VA-325">
          <mxGeometry y="127.99382019042969" width="306" height="32" as="geometry" />
        </mxCell>
        <mxCell id="Dy9m-1CG-kqUZyAml9VA-330" style="line;strokeWidth=1;fillColor=none;align=left;verticalAlign=middle;spacingTop=-1;spacingLeft=3;spacingRight=3;rotatable=0;labelPosition=right;points=[];portConstraint=eastwest;strokeColor=inherit;" vertex="1" parent="Dy9m-1CG-kqUZyAml9VA-325">
          <mxGeometry y="159.9938201904297" width="306" height="8" as="geometry" />
        </mxCell>
        <mxCell id="Dy9m-1CG-kqUZyAml9VA-331" value="+PStationModel()" style="text;strokeColor=none;fillColor=none;align=left;verticalAlign=top;spacingLeft=4;spacingRight=4;overflow=hidden;rotatable=0;points=[[0,0.5],[1,0.5]];portConstraint=eastwest;" vertex="1" parent="Dy9m-1CG-kqUZyAml9VA-325">
          <mxGeometry y="167.9938201904297" width="306" height="32" as="geometry" />
        </mxCell>
        <mxCell id="Dy9m-1CG-kqUZyAml9VA-332" value="+PStationModel.fromJson(Map)" style="text;strokeColor=none;fillColor=none;align=left;verticalAlign=top;spacingLeft=4;spacingRight=4;overflow=hidden;rotatable=0;points=[[0,0.5],[1,0.5]];portConstraint=eastwest;" vertex="1" parent="Dy9m-1CG-kqUZyAml9VA-325">
          <mxGeometry y="199.9938201904297" width="306" height="32" as="geometry" />
        </mxCell>
        <mxCell id="Dy9m-1CG-kqUZyAml9VA-333" value="+Map&lt;String, dynamic&gt; toJson()" style="text;strokeColor=none;fillColor=none;align=left;verticalAlign=top;spacingLeft=4;spacingRight=4;overflow=hidden;rotatable=0;points=[[0,0.5],[1,0.5]];portConstraint=eastwest;" vertex="1" parent="Dy9m-1CG-kqUZyAml9VA-325">
          <mxGeometry y="231.9938201904297" width="306" height="32" as="geometry" />
        </mxCell>
        <mxCell id="Dy9m-1CG-kqUZyAml9VA-334" value="Timestamp" style="swimlane;fontStyle=1;align=center;verticalAlign=top;childLayout=stackLayout;horizontal=1;startSize=37.996910095214844;horizontalStack=0;resizeParent=1;resizeParentMax=0;resizeLast=0;collapsible=0;marginBottom=0;" vertex="1" parent="1">
          <mxGeometry x="285" y="2441" width="106" height="56.996910095214844" as="geometry" />
        </mxCell>
        <mxCell id="Dy9m-1CG-kqUZyAml9VA-335" style="line;strokeWidth=1;fillColor=none;align=left;verticalAlign=middle;spacingTop=-1;spacingLeft=3;spacingRight=3;rotatable=0;labelPosition=right;points=[];portConstraint=eastwest;strokeColor=inherit;" vertex="1" parent="Dy9m-1CG-kqUZyAml9VA-334">
          <mxGeometry y="37.996910095214844" width="106" height="19" as="geometry" />
        </mxCell>
        <mxCell id="Dy9m-1CG-kqUZyAml9VA-336" value="List&lt;String&gt;" style="swimlane;fontStyle=1;align=center;verticalAlign=top;childLayout=stackLayout;horizontal=1;startSize=37.996910095214844;horizontalStack=0;resizeParent=1;resizeParentMax=0;resizeLast=0;collapsible=0;marginBottom=0;" vertex="1" parent="1">
          <mxGeometry x="971" y="2759" width="113" height="56.996910095214844" as="geometry" />
        </mxCell>
        <mxCell id="Dy9m-1CG-kqUZyAml9VA-337" style="line;strokeWidth=1;fillColor=none;align=left;verticalAlign=middle;spacingTop=-1;spacingLeft=3;spacingRight=3;rotatable=0;labelPosition=right;points=[];portConstraint=eastwest;strokeColor=inherit;" vertex="1" parent="Dy9m-1CG-kqUZyAml9VA-336">
          <mxGeometry y="37.996910095214844" width="113" height="19" as="geometry" />
        </mxCell>
        <mxCell id="Dy9m-1CG-kqUZyAml9VA-338" value="Map&lt;String, dynamic&gt;" style="swimlane;fontStyle=1;align=center;verticalAlign=top;childLayout=stackLayout;horizontal=1;startSize=37.996910095214844;horizontalStack=0;resizeParent=1;resizeParentMax=0;resizeLast=0;collapsible=0;marginBottom=0;" vertex="1" parent="1">
          <mxGeometry x="467" y="2441" width="189" height="56.996910095214844" as="geometry" />
        </mxCell>
        <mxCell id="Dy9m-1CG-kqUZyAml9VA-339" style="line;strokeWidth=1;fillColor=none;align=left;verticalAlign=middle;spacingTop=-1;spacingLeft=3;spacingRight=3;rotatable=0;labelPosition=right;points=[];portConstraint=eastwest;strokeColor=inherit;" vertex="1" parent="Dy9m-1CG-kqUZyAml9VA-338">
          <mxGeometry y="37.996910095214844" width="189" height="19" as="geometry" />
        </mxCell>
        <mxCell id="Dy9m-1CG-kqUZyAml9VA-340" value="DateTime" style="swimlane;fontStyle=1;align=center;verticalAlign=top;childLayout=stackLayout;horizontal=1;startSize=37.996910095214844;horizontalStack=0;resizeParent=1;resizeParentMax=0;resizeLast=0;collapsible=0;marginBottom=0;" vertex="1" parent="1">
          <mxGeometry x="1579" y="2759" width="95" height="56.996910095214844" as="geometry" />
        </mxCell>
        <mxCell id="Dy9m-1CG-kqUZyAml9VA-341" style="line;strokeWidth=1;fillColor=none;align=left;verticalAlign=middle;spacingTop=-1;spacingLeft=3;spacingRight=3;rotatable=0;labelPosition=right;points=[];portConstraint=eastwest;strokeColor=inherit;" vertex="1" parent="Dy9m-1CG-kqUZyAml9VA-340">
          <mxGeometry y="37.996910095214844" width="95" height="19" as="geometry" />
        </mxCell>
        <mxCell id="Dy9m-1CG-kqUZyAml9VA-342" value="has" style="curved=1;startArrow=diamondThin;startSize=14;startFill=1;endArrow=none;exitX=0;exitY=0.88;entryX=0.5;entryY=0;rounded=0;" edge="1" parent="1" source="Dy9m-1CG-kqUZyAml9VA-250" target="Dy9m-1CG-kqUZyAml9VA-317">
          <mxGeometry relative="1" as="geometry">
            <Array as="points">
              <mxPoint x="768" y="1619" />
            </Array>
          </mxGeometry>
        </mxCell>
        <mxCell id="Dy9m-1CG-kqUZyAml9VA-343" value="1" style="edgeLabel;resizable=0;labelBackgroundColor=none;fontSize=12;align=right;verticalAlign=top;" vertex="1" parent="Dy9m-1CG-kqUZyAml9VA-342">
          <mxGeometry x="-1" relative="1" as="geometry" />
        </mxCell>
        <mxCell id="Dy9m-1CG-kqUZyAml9VA-344" value="many" style="edgeLabel;resizable=0;labelBackgroundColor=none;fontSize=12;align=left;verticalAlign=bottom;" vertex="1" parent="Dy9m-1CG-kqUZyAml9VA-342">
          <mxGeometry x="1" relative="1" as="geometry" />
        </mxCell>
        <mxCell id="Dy9m-1CG-kqUZyAml9VA-345" value="creates" style="curved=1;startArrow=none;endArrow=diamondThin;endSize=14;endFill=0;exitX=1;exitY=0.94;entryX=0.21;entryY=0;rounded=0;" edge="1" parent="1" source="Dy9m-1CG-kqUZyAml9VA-250" target="Dy9m-1CG-kqUZyAml9VA-288">
          <mxGeometry relative="1" as="geometry">
            <Array as="points">
              <mxPoint x="1329" y="1619" />
            </Array>
          </mxGeometry>
        </mxCell>
        <mxCell id="Dy9m-1CG-kqUZyAml9VA-346" value="1" style="edgeLabel;resizable=0;labelBackgroundColor=none;fontSize=12;align=left;verticalAlign=top;" vertex="1" parent="Dy9m-1CG-kqUZyAml9VA-345">
          <mxGeometry x="-1" relative="1" as="geometry" />
        </mxCell>
        <mxCell id="Dy9m-1CG-kqUZyAml9VA-347" value="many" style="edgeLabel;resizable=0;labelBackgroundColor=none;fontSize=12;align=right;verticalAlign=bottom;" vertex="1" parent="Dy9m-1CG-kqUZyAml9VA-345">
          <mxGeometry x="1" relative="1" as="geometry" />
        </mxCell>
        <mxCell id="Dy9m-1CG-kqUZyAml9VA-348" value="creates" style="curved=1;startArrow=none;endArrow=diamondThin;endSize=14;endFill=0;exitX=0.78;exitY=1;entryX=0.34;entryY=0;rounded=0;" edge="1" parent="1" source="Dy9m-1CG-kqUZyAml9VA-250" target="Dy9m-1CG-kqUZyAml9VA-302">
          <mxGeometry relative="1" as="geometry">
            <Array as="points">
              <mxPoint x="1197" y="1619" />
              <mxPoint x="1197" y="2243" />
            </Array>
          </mxGeometry>
        </mxCell>
        <mxCell id="Dy9m-1CG-kqUZyAml9VA-349" value="1" style="edgeLabel;resizable=0;labelBackgroundColor=none;fontSize=12;align=right;verticalAlign=top;" vertex="1" parent="Dy9m-1CG-kqUZyAml9VA-348">
          <mxGeometry x="-1" relative="1" as="geometry" />
        </mxCell>
        <mxCell id="Dy9m-1CG-kqUZyAml9VA-350" value="many" style="edgeLabel;resizable=0;labelBackgroundColor=none;fontSize=12;align=left;verticalAlign=bottom;" vertex="1" parent="Dy9m-1CG-kqUZyAml9VA-348">
          <mxGeometry x="1" relative="1" as="geometry" />
        </mxCell>
        <mxCell id="Dy9m-1CG-kqUZyAml9VA-351" value="raises" style="curved=1;startArrow=none;endArrow=diamondThin;endSize=14;endFill=0;exitX=0;exitY=0.64;entryX=0.33;entryY=0;rounded=0;" edge="1" parent="1" source="Dy9m-1CG-kqUZyAml9VA-250" target="Dy9m-1CG-kqUZyAml9VA-267">
          <mxGeometry relative="1" as="geometry">
            <Array as="points">
              <mxPoint x="276" y="1619" />
            </Array>
          </mxGeometry>
        </mxCell>
        <mxCell id="Dy9m-1CG-kqUZyAml9VA-352" value="1" style="edgeLabel;resizable=0;labelBackgroundColor=none;fontSize=12;align=right;verticalAlign=top;" vertex="1" parent="Dy9m-1CG-kqUZyAml9VA-351">
          <mxGeometry x="-1" relative="1" as="geometry" />
        </mxCell>
        <mxCell id="Dy9m-1CG-kqUZyAml9VA-353" value="many" style="edgeLabel;resizable=0;labelBackgroundColor=none;fontSize=12;align=left;verticalAlign=bottom;" vertex="1" parent="Dy9m-1CG-kqUZyAml9VA-351">
          <mxGeometry x="1" relative="1" as="geometry" />
        </mxCell>
        <mxCell id="Dy9m-1CG-kqUZyAml9VA-375" value="Text" style="edgeLabel;html=1;align=center;verticalAlign=middle;resizable=0;points=[];" vertex="1" connectable="0" parent="Dy9m-1CG-kqUZyAml9VA-351">
          <mxGeometry x="0.9622" y="-1" relative="1" as="geometry">
            <mxPoint y="-1" as="offset" />
          </mxGeometry>
        </mxCell>
        <mxCell id="Dy9m-1CG-kqUZyAml9VA-354" value="has responders" style="curved=1;startArrow=none;endArrow=none;exitX=0.83;exitY=0;entryX=0;entryY=0.69;rounded=0;" edge="1" parent="1" source="Dy9m-1CG-kqUZyAml9VA-267" target="Dy9m-1CG-kqUZyAml9VA-250">
          <mxGeometry relative="1" as="geometry">
            <Array as="points">
              <mxPoint x="454" y="1619" />
            </Array>
          </mxGeometry>
        </mxCell>
        <mxCell id="Dy9m-1CG-kqUZyAml9VA-355" value="many" style="edgeLabel;resizable=0;labelBackgroundColor=none;fontSize=12;align=left;verticalAlign=bottom;" vertex="1" parent="Dy9m-1CG-kqUZyAml9VA-354">
          <mxGeometry x="-1" relative="1" as="geometry" />
        </mxCell>
        <mxCell id="Dy9m-1CG-kqUZyAml9VA-356" value="many" style="edgeLabel;resizable=0;labelBackgroundColor=none;fontSize=12;align=right;verticalAlign=top;" vertex="1" parent="Dy9m-1CG-kqUZyAml9VA-354">
          <mxGeometry x="1" relative="1" as="geometry" />
        </mxCell>
        <mxCell id="Dy9m-1CG-kqUZyAml9VA-357" value="has" style="curved=1;startArrow=none;endArrow=diamondThin;endSize=14;endFill=0;exitX=0.38;exitY=1;entryX=0.85;entryY=0;rounded=0;" edge="1" parent="1" source="Dy9m-1CG-kqUZyAml9VA-288" target="Dy9m-1CG-kqUZyAml9VA-302">
          <mxGeometry relative="1" as="geometry">
            <Array as="points">
              <mxPoint x="1413" y="2243" />
            </Array>
          </mxGeometry>
        </mxCell>
        <mxCell id="Dy9m-1CG-kqUZyAml9VA-358" value="1" style="edgeLabel;resizable=0;labelBackgroundColor=none;fontSize=12;align=right;verticalAlign=top;" vertex="1" parent="Dy9m-1CG-kqUZyAml9VA-357">
          <mxGeometry x="-1" relative="1" as="geometry" />
        </mxCell>
        <mxCell id="Dy9m-1CG-kqUZyAml9VA-359" value="many" style="edgeLabel;resizable=0;labelBackgroundColor=none;fontSize=12;align=left;verticalAlign=bottom;" vertex="1" parent="Dy9m-1CG-kqUZyAml9VA-357">
          <mxGeometry x="1" relative="1" as="geometry" />
        </mxCell>
        <mxCell id="Dy9m-1CG-kqUZyAml9VA-360" value="gets upvotes from" style="curved=1;startArrow=none;endArrow=none;exitX=0.62;exitY=0;entryX=1;entryY=0.75;rounded=0;" edge="1" parent="1" source="Dy9m-1CG-kqUZyAml9VA-288" target="Dy9m-1CG-kqUZyAml9VA-250">
          <mxGeometry relative="1" as="geometry">
            <Array as="points">
              <mxPoint x="1532" y="1619" />
            </Array>
          </mxGeometry>
        </mxCell>
        <mxCell id="Dy9m-1CG-kqUZyAml9VA-361" value="1" style="edgeLabel;resizable=0;labelBackgroundColor=none;fontSize=12;align=right;verticalAlign=bottom;" vertex="1" parent="Dy9m-1CG-kqUZyAml9VA-360">
          <mxGeometry x="-1" relative="1" as="geometry" />
        </mxCell>
        <mxCell id="Dy9m-1CG-kqUZyAml9VA-362" value="many" style="edgeLabel;resizable=0;labelBackgroundColor=none;fontSize=12;align=left;verticalAlign=top;" vertex="1" parent="Dy9m-1CG-kqUZyAml9VA-360">
          <mxGeometry x="1" relative="1" as="geometry" />
        </mxCell>
        <mxCell id="Dy9m-1CG-kqUZyAml9VA-363" value="serves" style="curved=1;dashed=1;startArrow=none;endArrow=open;endSize=12;exitX=0;exitY=0.92;entryX=0.45;entryY=0;rounded=0;" edge="1" parent="1" source="Dy9m-1CG-kqUZyAml9VA-325" target="Dy9m-1CG-kqUZyAml9VA-267">
          <mxGeometry relative="1" as="geometry">
            <Array as="points">
              <mxPoint x="318" y="1090" />
              <mxPoint x="318" y="1619" />
            </Array>
          </mxGeometry>
        </mxCell>
        <mxCell id="Dy9m-1CG-kqUZyAml9VA-364" value="manages (admin)" style="curved=1;dashed=1;startArrow=none;endArrow=open;endSize=12;exitX=1;exitY=0.69;entryX=0.5;entryY=0;rounded=0;" edge="1" parent="1" source="Dy9m-1CG-kqUZyAml9VA-325" target="Dy9m-1CG-kqUZyAml9VA-250">
          <mxGeometry relative="1" as="geometry">
            <Array as="points">
              <mxPoint x="1070" y="1090" />
            </Array>
          </mxGeometry>
        </mxCell>
        <mxCell id="Dy9m-1CG-kqUZyAml9VA-365" value="uses" style="curved=1;dashed=1;startArrow=none;endArrow=open;endSize=12;exitX=0.5;exitY=1;entryX=0.49;entryY=0;rounded=0;" edge="1" parent="1" source="Dy9m-1CG-kqUZyAml9VA-267" target="Dy9m-1CG-kqUZyAml9VA-334">
          <mxGeometry relative="1" as="geometry">
            <Array as="points" />
          </mxGeometry>
        </mxCell>
        <mxCell id="Dy9m-1CG-kqUZyAml9VA-366" value="uses" style="curved=1;dashed=1;startArrow=none;endArrow=open;endSize=12;exitX=0.2;exitY=1;entryX=0;entryY=0.44;rounded=0;" edge="1" parent="1" source="Dy9m-1CG-kqUZyAml9VA-267" target="Dy9m-1CG-kqUZyAml9VA-336">
          <mxGeometry relative="1" as="geometry">
            <Array as="points">
              <mxPoint x="232" y="2243" />
              <mxPoint x="232" y="2723" />
            </Array>
          </mxGeometry>
        </mxCell>
        <mxCell id="Dy9m-1CG-kqUZyAml9VA-367" value="uses" style="curved=1;dashed=1;startArrow=none;endArrow=open;endSize=12;exitX=0.85;exitY=1;entryX=0.41;entryY=0;rounded=0;" edge="1" parent="1" source="Dy9m-1CG-kqUZyAml9VA-267" target="Dy9m-1CG-kqUZyAml9VA-338">
          <mxGeometry relative="1" as="geometry">
            <Array as="points">
              <mxPoint x="463" y="2243" />
            </Array>
          </mxGeometry>
        </mxCell>
        <mxCell id="Dy9m-1CG-kqUZyAml9VA-368" value="uses" style="curved=1;dashed=1;startArrow=none;endArrow=open;endSize=12;exitX=0.52;exitY=1;entryX=0.5;entryY=0;rounded=0;" edge="1" parent="1" source="Dy9m-1CG-kqUZyAml9VA-325" target="Dy9m-1CG-kqUZyAml9VA-338">
          <mxGeometry relative="1" as="geometry">
            <Array as="points">
              <mxPoint x="559" y="1090" />
              <mxPoint x="559" y="2243" />
            </Array>
          </mxGeometry>
        </mxCell>
        <mxCell id="Dy9m-1CG-kqUZyAml9VA-369" value="uses" style="curved=1;dashed=1;startArrow=none;endArrow=open;endSize=12;exitX=0.74;exitY=1;entryX=0.32;entryY=0.01;rounded=0;" edge="1" parent="1" source="Dy9m-1CG-kqUZyAml9VA-288" target="Dy9m-1CG-kqUZyAml9VA-340">
          <mxGeometry relative="1" as="geometry">
            <Array as="points">
              <mxPoint x="1594" y="2243" />
              <mxPoint x="1594" y="2723" />
            </Array>
          </mxGeometry>
        </mxCell>
        <mxCell id="Dy9m-1CG-kqUZyAml9VA-370" value="uses" style="curved=1;dashed=1;startArrow=none;endArrow=open;endSize=12;exitX=0;exitY=0.78;entryX=0.51;entryY=0.01;rounded=0;" edge="1" parent="1" source="Dy9m-1CG-kqUZyAml9VA-288" target="Dy9m-1CG-kqUZyAml9VA-336">
          <mxGeometry relative="1" as="geometry">
            <Array as="points">
              <mxPoint x="1030" y="2243" />
              <mxPoint x="1030" y="2723" />
            </Array>
          </mxGeometry>
        </mxCell>
        <mxCell id="Dy9m-1CG-kqUZyAml9VA-371" value="uses" style="curved=1;dashed=1;startArrow=none;endArrow=open;endSize=12;exitX=1;exitY=0.79;entryX=0.53;entryY=0.01;rounded=0;" edge="1" parent="1" source="Dy9m-1CG-kqUZyAml9VA-302" target="Dy9m-1CG-kqUZyAml9VA-340">
          <mxGeometry relative="1" as="geometry">
            <Array as="points">
              <mxPoint x="1631" y="2723" />
            </Array>
          </mxGeometry>
        </mxCell>
        <mxCell id="Dy9m-1CG-kqUZyAml9VA-372" value="uses" style="curved=1;dashed=1;startArrow=none;endArrow=open;endSize=12;exitX=0.5;exitY=1;entryX=1;entryY=0.28;rounded=0;" edge="1" parent="1" source="Dy9m-1CG-kqUZyAml9VA-302" target="Dy9m-1CG-kqUZyAml9VA-336">
          <mxGeometry relative="1" as="geometry">
            <Array as="points">
              <mxPoint x="1265" y="2723" />
            </Array>
          </mxGeometry>
        </mxCell>
        <mxCell id="Dy9m-1CG-kqUZyAml9VA-373" value="uses" style="curved=1;dashed=1;startArrow=none;endArrow=open;endSize=12;exitX=1;exitY=0.69;entryX=0.74;entryY=0.01;rounded=0;" edge="1" parent="1" source="Dy9m-1CG-kqUZyAml9VA-250" target="Dy9m-1CG-kqUZyAml9VA-340">
          <mxGeometry relative="1" as="geometry">
            <Array as="points">
              <mxPoint x="1669" y="1619" />
              <mxPoint x="1669" y="2723" />
            </Array>
          </mxGeometry>
        </mxCell>
        <mxCell id="Dy9m-1CG-kqUZyAml9VA-374" value="uses" style="curved=1;dashed=1;startArrow=none;endArrow=open;endSize=12;exitX=0.33;exitY=1;entryX=0.9;entryY=0;rounded=0;" edge="1" parent="1" source="Dy9m-1CG-kqUZyAml9VA-250" target="Dy9m-1CG-kqUZyAml9VA-338">
          <mxGeometry relative="1" as="geometry">
            <Array as="points">
              <mxPoint x="994" y="1619" />
              <mxPoint x="994" y="2243" />
            </Array>
          </mxGeometry>
        </mxCell>
      </root>
    </mxGraphModel>
  </diagram>
</mxfile>
